<svg width="20" height="20" viewBox="0 0 20 20" fill="none" xmlns="http://www.w3.org/2000/svg">
<g clip-path="url(#clip0_511_38)">
<path d="M6.60388 0.35705C6.49135 0.361432 6.37856 0.381808 6.26482 0.422675C6.18739 0.450478 6.12041 0.501476 6.07302 0.568721C6.02563 0.635967 6.00012 0.716188 5.99997 0.798456C5.99997 2.36738 5.76243 3.71298 5.67263 4.19221L2.07575 3.49689C2.01785 3.48573 1.9582 3.4875 1.90106 3.50209C1.84393 3.51667 1.79072 3.54371 1.74526 3.58126C1.6998 3.61881 1.66319 3.66595 1.63808 3.7193C1.61296 3.77265 1.59995 3.83089 1.59997 3.88986C1.59997 6.13267 2.68074 7.34648 3.2656 7.91408C3.00853 7.97035 2.93568 7.96696 2.52732 8.09846C1.74769 8.34949 0.801713 8.7417 0.121847 9.39846C0.0798243 9.4391 0.0472223 9.48847 0.0263361 9.54308C0.00544999 9.59769 -0.00321259 9.65621 0.000958221 9.71453C0.00512903 9.77284 0.0220318 9.82954 0.0504767 9.88062C0.0789216 9.9317 0.118217 9.97592 0.165597 10.0102C1.00407 10.6176 1.74557 10.9247 2.28903 11.1633C2.68047 11.3352 2.81665 11.4737 2.97732 11.6235C1.98914 12.5179 0.980441 13.2156 0.980441 13.2156C0.916062 13.2578 0.865225 13.3177 0.834027 13.3881C0.802829 13.4585 0.792595 13.5363 0.804554 13.6124C0.816513 13.6884 0.850156 13.7594 0.901447 13.8168C0.952738 13.8742 1.0195 13.9156 1.09372 13.936L3.5656 14.618C3.54498 14.9606 3.46171 15.8237 2.8445 17.0164C2.81301 17.0774 2.79774 17.1455 2.80015 17.2141C2.80257 17.2826 2.82259 17.3495 2.85829 17.4081C2.894 17.4667 2.94418 17.5151 3.00402 17.5488C3.06386 17.5824 3.13134 17.6 3.19997 17.6C4.319 17.6 5.34869 17.2976 5.61403 17.2141C6.53164 18.8796 8.13968 20 9.99997 20C11.8559 20 13.461 18.8849 14.3797 17.2258C14.6893 17.3499 15.4314 17.6 16.4 17.6C16.4637 17.6 16.5265 17.5848 16.5832 17.5556C16.6398 17.5264 16.6887 17.4841 16.7257 17.4322C16.7627 17.3803 16.7867 17.3203 16.7958 17.2572C16.805 17.1941 16.7989 17.1298 16.7781 17.0695C16.4722 16.183 16.4272 15.0101 16.4164 14.6195C16.6329 14.5648 16.942 14.4935 17.4843 14.3149C17.8374 14.1986 18.1963 14.0665 18.4945 13.9188C18.6436 13.8449 18.7774 13.7681 18.8968 13.6735C19.0162 13.5788 19.1446 13.4669 19.1914 13.2469C19.2082 13.1675 19.2005 13.0848 19.1693 13.0099C19.138 12.9349 19.0847 12.8713 19.0164 12.8274C18.196 12.299 17.6852 11.6967 17.407 11.3438C17.9778 11.0739 19.2649 10.3821 19.9695 8.68049C19.9947 8.61971 20.0045 8.55367 19.998 8.4882C19.9916 8.42274 19.9691 8.35987 19.9325 8.30517C19.896 8.25048 19.8465 8.20563 19.7885 8.17462C19.7305 8.1436 19.6658 8.12737 19.6 8.12736C18.0721 8.12736 17.0198 7.93321 16.5351 7.83361C16.7214 7.25923 17.3553 5.37235 18.3156 4.13517C18.3576 4.08118 18.385 4.01732 18.3953 3.9497C18.4055 3.88208 18.3983 3.81296 18.3742 3.74894C18.3502 3.68491 18.3101 3.62813 18.2579 3.584C18.2056 3.53988 18.1429 3.50988 18.0758 3.49689C16.3081 3.15538 14.9043 3.79424 14.3117 4.09533C14.2102 3.53907 14 2.29092 14 0.798456C13.9998 0.716188 13.9743 0.635967 13.9269 0.568721C13.8795 0.501476 13.8126 0.450478 13.7351 0.422675C13.2801 0.259209 12.8338 0.421855 12.4039 0.642987C11.9739 0.86412 11.5419 1.18052 11.1461 1.50471C10.5151 2.0214 10.1926 2.37237 9.99997 2.57189C9.80732 2.37237 9.48484 2.0214 8.85388 1.50471C8.45799 1.18052 8.02602 0.86412 7.59606 0.642987C7.38109 0.532421 7.1621 0.436337 6.93981 0.3883C6.82867 0.364281 6.71641 0.352668 6.60388 0.35705ZM6.76716 1.23517C6.89643 1.24895 7.00043 1.23641 7.23044 1.35471C7.57569 1.53227 7.97711 1.82004 8.34763 2.12346C9.08866 2.73028 9.70778 3.39064 9.70778 3.39064C9.74521 3.43066 9.79045 3.46257 9.84071 3.48438C9.89097 3.50619 9.94518 3.51745 9.99997 3.51745C10.0548 3.51745 10.109 3.50619 10.1592 3.48438C10.2095 3.46257 10.2547 3.43066 10.2922 3.39064C10.2922 3.39064 10.9113 2.73028 11.6523 2.12346C12.0228 1.82004 12.4243 1.53227 12.7695 1.35471C12.9995 1.23641 13.1035 1.24895 13.2328 1.23517C13.2883 3.04695 13.6086 4.74377 13.6086 4.74377C13.6214 4.80578 13.6489 4.86385 13.6886 4.9132C13.7283 4.96255 13.7791 5.00177 13.8369 5.02763C13.8947 5.05349 13.9579 5.06525 14.0211 5.06194C14.0844 5.05863 14.1459 5.04036 14.2008 5.00861C14.2008 5.00861 15.7023 4.22368 17.2945 4.26721C16.2572 5.90828 15.6164 8.02736 15.6164 8.02736C15.601 8.07938 15.5963 8.13399 15.6027 8.18786C15.6091 8.24174 15.6264 8.29375 15.6535 8.34074C15.6806 8.38772 15.717 8.42871 15.7604 8.46119C15.8039 8.49368 15.8535 8.51699 15.9062 8.52971C15.9062 8.52971 17.2438 8.79645 18.9156 8.87502C18.082 10.2323 16.6554 10.8586 16.6554 10.8586C16.599 10.8805 16.5483 10.9148 16.5071 10.9591C16.4659 11.0034 16.4353 11.0564 16.4175 11.1143C16.3998 11.1721 16.3954 11.2332 16.4046 11.293C16.4139 11.3528 16.4366 11.4097 16.4711 11.4594C16.4711 11.4594 17.1797 12.3799 18.1984 13.1664C18.1742 13.1795 18.166 13.1882 18.139 13.2016C17.9021 13.319 17.5677 13.4449 17.2343 13.5547C16.5676 13.7743 15.9062 13.9344 15.9062 13.9344C15.8189 13.9554 15.7412 14.0053 15.6857 14.0759C15.6301 14.1464 15.5999 14.2336 15.6 14.3235C15.6 14.3235 15.643 15.5761 15.9086 16.7336C15.2866 16.6631 14.893 16.5414 14.7273 16.4867C15.0286 15.7257 15.2 14.8846 15.2 14V10.4C15.2 7.12191 12.903 4.40002 9.99997 4.40002C7.09695 4.40002 4.79997 7.12191 4.79997 10.4V14C4.79997 14.8772 4.96826 15.7119 5.26482 16.468C5.0278 16.5264 4.48643 16.6541 3.78122 16.7289C4.29411 15.4244 4.39997 14.3235 4.39997 14.3235C4.40003 14.2358 4.37132 14.1506 4.31825 14.0809C4.26519 14.0112 4.19069 13.9608 4.10622 13.9375L2.11638 13.3883C2.6007 13.0316 3.2272 12.5397 3.87888 11.9047C3.94039 11.8449 3.98104 11.7669 3.99482 11.6822C4.00861 11.5975 3.9948 11.5106 3.95544 11.4344C3.68038 10.903 3.16745 10.6756 2.61091 10.4313C2.2026 10.252 1.67929 9.95562 1.16091 9.64689C1.65487 9.31617 2.23121 9.03373 2.77263 8.85939C3.49301 8.62743 4.06325 8.53596 4.06325 8.53596C4.14036 8.52363 4.21217 8.489 4.26983 8.43635C4.3275 8.3837 4.36849 8.31533 4.38776 8.23966C4.40703 8.16399 4.40373 8.08433 4.37828 8.01052C4.35282 7.9367 4.30632 7.87194 4.2445 7.82424C4.2445 7.82424 2.72336 6.55932 2.48669 4.39142L5.92419 5.05549C6.0274 5.07531 6.13426 5.05373 6.22168 4.9954C6.3091 4.93707 6.37006 4.84668 6.39138 4.74377C6.39138 4.74377 6.71167 3.04695 6.76716 1.23517ZM9.99997 5.20002C12.3985 5.20002 14.4 7.49253 14.4 10.4V14C14.4 16.9075 12.3985 19.2 9.99997 19.2C7.60139 19.2 5.59997 16.9075 5.59997 14V10.4C5.59997 7.49253 7.60139 5.20002 9.99997 5.20002ZM6.78435 8.39455C6.68941 8.39481 6.59767 8.42882 6.5255 8.4905C6.45334 8.55219 6.40547 8.63753 6.39044 8.73126C6.37541 8.825 6.39421 8.92102 6.44347 9.00218C6.49273 9.08333 6.56925 9.14431 6.65935 9.17424C6.65935 9.17424 6.93884 9.27191 7.44606 9.37267C6.83157 9.66005 6.39997 10.2804 6.39997 11C6.39997 11.9894 7.2106 12.8 8.19997 12.8C9.18935 12.8 9.99997 11.9894 9.99997 11C9.99997 10.4237 9.72045 9.91374 9.29528 9.58361C9.51791 9.59347 9.75032 9.60002 9.99997 9.60002C10.2496 9.60002 10.482 9.59347 10.7047 9.58361C10.2795 9.91374 9.99997 10.4237 9.99997 11C9.99997 11.9894 10.8106 12.8 11.8 12.8C12.7893 12.8 13.6 11.9894 13.6 11C13.6 10.2804 13.1684 9.66005 12.5539 9.37267C13.0611 9.27191 13.3406 9.17424 13.3406 9.17424C13.4294 9.14237 13.5041 9.08014 13.5514 8.99855C13.5988 8.91696 13.6158 8.82126 13.5994 8.72835C13.5831 8.63544 13.5344 8.55129 13.462 8.49079C13.3897 8.43028 13.2982 8.3973 13.2039 8.39767C13.1544 8.39803 13.1054 8.40756 13.0593 8.4258C13.0593 8.4258 12.0832 8.80002 9.99997 8.80002C7.91677 8.80002 6.9406 8.4258 6.9406 8.4258C6.89114 8.40501 6.838 8.39438 6.78435 8.39455ZM8.19997 10C8.75699 10 9.19997 10.443 9.19997 11C9.19997 11.557 8.75699 12 8.19997 12C7.64295 12 7.19997 11.557 7.19997 11C7.19997 10.443 7.64295 10 8.19997 10ZM11.8 10C12.357 10 12.8 10.443 12.8 11C12.8 11.557 12.357 12 11.8 12C11.2429 12 10.8 11.557 10.8 11C10.8 10.443 11.2429 10 11.8 10ZM12 10.4C11.8939 10.4 11.7921 10.4422 11.7171 10.5172C11.6421 10.5922 11.6 10.6939 11.6 10.8C11.6 10.9061 11.6421 11.0078 11.7171 11.0829C11.7921 11.1579 11.8939 11.2 12 11.2C12.1061 11.2 12.2078 11.1579 12.2828 11.0829C12.3578 11.0078 12.4 10.9061 12.4 10.8C12.4 10.6939 12.3578 10.5922 12.2828 10.5172C12.2078 10.4422 12.1061 10.4 12 10.4ZM7.99997 10.8C7.89388 10.8 7.79214 10.8422 7.71713 10.9172C7.64211 10.9922 7.59997 11.0939 7.59997 11.2C7.59997 11.3061 7.64211 11.4078 7.71713 11.4829C7.79214 11.5579 7.89388 11.6 7.99997 11.6C8.10606 11.6 8.2078 11.5579 8.28281 11.4829C8.35783 11.4078 8.39997 11.3061 8.39997 11.2C8.39997 11.0939 8.35783 10.9922 8.28281 10.9172C8.2078 10.8422 8.10606 10.8 7.99997 10.8ZM10.3937 12.7945C10.2878 12.7962 10.1868 12.8398 10.113 12.9158C10.0392 12.9919 9.99852 13.0941 9.99997 13.2V14.3078C9.99997 14.3517 9.99581 14.3502 9.99216 14.3758C9.97291 14.3716 10.0007 14.3745 9.96794 14.3594C9.76006 14.2635 9.47106 14.0133 9.47106 14.0133C9.43257 13.977 9.38724 13.9487 9.33772 13.93C9.2882 13.9113 9.23547 13.9026 9.18258 13.9045C9.12969 13.9063 9.07769 13.9187 9.02959 13.9408C8.9815 13.9628 8.93826 13.9943 8.9024 14.0332C8.86653 14.0721 8.83874 14.1177 8.82064 14.1675C8.80254 14.2172 8.79449 14.27 8.79695 14.3229C8.79941 14.3758 8.81234 14.4276 8.83499 14.4755C8.85763 14.5233 8.88955 14.5662 8.92888 14.6016C8.92888 14.6016 9.23988 14.905 9.632 15.086C9.82806 15.1764 10.0837 15.2752 10.3804 15.1383C10.5288 15.0698 10.6518 14.9315 10.7156 14.7844C10.7794 14.6373 10.8 14.4824 10.8 14.3078V13.2C10.8007 13.1465 10.7907 13.0934 10.7705 13.0438C10.7504 12.9942 10.7204 12.9492 10.6826 12.9114C10.6447 12.8736 10.5996 12.8438 10.55 12.8237C10.5004 12.8036 10.4472 12.7937 10.3937 12.7945ZM9.99997 15.6C8.3333 15.6 7.07341 16.0203 7.07341 16.0203C7.02354 16.0369 6.97742 16.0632 6.93771 16.0976C6.89799 16.1321 6.86545 16.174 6.84193 16.221C6.81842 16.268 6.8044 16.3192 6.80067 16.3717C6.79694 16.4241 6.80357 16.4767 6.8202 16.5266C6.83682 16.5765 6.8631 16.6226 6.89755 16.6623C6.93199 16.702 6.97392 16.7345 7.02094 16.758C7.06796 16.7815 7.11915 16.7956 7.17158 16.7993C7.22402 16.803 7.27667 16.7963 7.32653 16.7797C7.32653 16.7797 7.45416 16.7428 7.63747 16.6953C7.65543 16.7772 7.67959 16.8654 7.72106 16.9602C7.81381 17.1722 8.05771 17.3709 8.36169 17.4867C8.3765 17.5898 8.35917 17.6187 8.42106 17.7602C8.54781 18.0499 8.89759 18.4 9.39997 18.4C9.90235 18.4 10.2521 18.0499 10.3789 17.7602C10.4362 17.6293 10.4176 17.607 10.4336 17.507C10.5245 17.4851 10.5408 17.5092 10.6484 17.4477C10.9091 17.2987 11.1683 16.9527 11.1945 16.4766C12.0858 16.5873 12.6734 16.7797 12.6734 16.7797C12.7233 16.7963 12.7759 16.803 12.8284 16.7993C12.8808 16.7956 12.932 16.7815 12.979 16.758C13.026 16.7345 13.068 16.702 13.1024 16.6623C13.1368 16.6226 13.1631 16.5765 13.1797 16.5266C13.1964 16.4767 13.203 16.4241 13.1993 16.3717C13.1955 16.3192 13.1815 16.268 13.158 16.221C13.1345 16.174 13.102 16.1321 13.0622 16.0976C13.0225 16.0632 12.9764 16.0369 12.9265 16.0203C12.9265 16.0203 11.6666 15.6 9.99997 15.6ZM9.99997 16.4C10.1377 16.4 10.2683 16.4062 10.3992 16.4117C10.3967 16.6815 10.3255 16.7101 10.2515 16.7524C10.1763 16.7954 10.1 16.8 10.1 16.8C9.99389 16.8 9.89215 16.8422 9.81714 16.9172C9.74213 16.9922 9.69998 17.0939 9.69997 17.2C9.69997 17.2 9.69431 17.3296 9.64606 17.4399C9.59781 17.5501 9.59759 17.6 9.39997 17.6C9.20235 17.6 9.20213 17.5501 9.15388 17.4399C9.10563 17.3296 9.09997 17.2 9.09997 17.2C9.09996 17.0939 9.05781 16.9922 8.9828 16.9172C8.90779 16.8422 8.80605 16.8 8.69997 16.8C8.50235 16.8 8.50213 16.7501 8.45388 16.6399C8.43749 16.6024 8.43142 16.5666 8.42341 16.5305C8.85931 16.4593 9.39709 16.4 9.99997 16.4Z" fill="white"/>
</g>
<defs>
<clipPath id="clip0_511_38">
<rect width="20" height="20" fill="white"/>
</clipPath>
</defs>
</svg>
