<svg width="20" height="20" viewBox="0 0 20 20" fill="none" xmlns="http://www.w3.org/2000/svg">
<path d="M9.98617 0.837402C8.24287 0.837402 6.59928 1.15449 5.25553 2.01009C3.94362 2.84542 2.96825 4.21342 2.5179 6.11491C2.37149 6.23824 2.20235 6.33874 1.94173 6.77734C1.58127 7.38397 1.24512 8.32485 1.24512 9.65739C1.24512 10.6025 1.3972 11.5126 1.67074 12.3682C1.4171 12.688 1.25977 13.088 1.25977 13.5278C1.25977 14.5632 2.09935 15.4028 3.13477 15.4028V15.3613C4.41054 17.8621 7.00572 19.5825 10 19.5825C12.9863 19.5825 15.576 17.8716 16.8555 15.3817V15.4167C17.8909 15.4167 18.7305 14.5771 18.7305 13.5417C18.7305 13.0926 18.5665 12.6861 18.3032 12.3633C18.5758 11.5095 18.7272 10.6014 18.7272 9.6582C18.7272 4.79706 14.8097 0.837402 9.98617 0.837402ZM9.98617 2.0874C14.1276 2.0874 17.4772 5.46601 17.4772 9.6582C17.4772 9.77012 17.4706 9.88038 17.4658 9.99105C16.6219 6.65008 13.5992 4.16585 10 4.16585C6.36777 4.16585 3.32157 6.6955 2.51058 10.083C2.50285 9.94182 2.49512 9.80062 2.49512 9.65739C2.49512 8.53117 2.76766 7.83322 3.01595 7.41536C3.26424 6.99751 3.43669 6.89779 3.43669 6.89779L3.64421 6.75781L3.69792 6.51367C4.07499 4.80041 4.85744 3.74574 5.92692 3.06478C6.9964 2.38381 8.39654 2.0874 9.98617 2.0874ZM10 5.41585C13.5743 5.41585 16.4583 8.29986 16.4583 11.8742C16.4583 15.4485 13.5743 18.3325 10 18.3325C6.42568 18.3325 3.54167 15.4485 3.54167 11.8742C3.54167 8.29986 6.42568 5.41585 10 5.41585ZM7.08008 8.7443C5.47053 8.7443 4.15527 10.0546 4.15527 11.6618C4.15527 13.2689 5.47018 14.5793 7.08008 14.5793C8.68071 14.5793 9.98417 13.2822 9.99919 11.6878C10.0094 13.2891 11.3126 14.5947 12.9134 14.5947C14.5205 14.5947 15.8309 13.2798 15.8309 11.6699C15.8309 10.0599 14.5201 8.7443 12.9134 8.7443C11.3155 8.7443 10.0157 10.0466 10.0008 11.6439C9.99044 10.0455 8.68359 8.7443 7.08008 8.7443ZM7.08008 9.57764C8.24102 9.57764 9.17155 10.5064 9.17155 11.6618C9.17155 12.8172 8.24102 13.7459 7.08008 13.7459C5.91914 13.7459 4.98861 12.8172 4.98861 11.6618C4.98861 10.5064 5.91962 9.57764 7.08008 9.57764ZM12.9134 9.57764C14.0684 9.57764 14.9976 10.5091 14.9976 11.6699C14.9976 12.8309 14.0688 13.7614 12.9134 13.7614C11.758 13.7614 10.8293 12.8309 10.8293 11.6699C10.8293 10.509 11.758 9.57764 12.9134 9.57764ZM6.66667 11.6667C6.43667 11.6667 6.25 11.8533 6.25 12.0833C6.25 12.3133 6.43667 12.5 6.66667 12.5C6.89667 12.5 7.08333 12.3133 7.08333 12.0833C7.08333 11.8533 6.89667 11.6667 6.66667 11.6667ZM13.3333 11.6667C13.1033 11.6667 12.9167 11.8533 12.9167 12.0833C12.9167 12.3133 13.1033 12.5 13.3333 12.5C13.5633 12.5 13.75 12.3133 13.75 12.0833C13.75 11.8533 13.5633 11.6667 13.3333 11.6667ZM9.58171 13.9144C9.49533 13.913 9.41067 13.9385 9.33942 13.9874C9.26817 14.0362 9.21386 14.106 9.18401 14.187C9.15416 14.2681 9.15024 14.3564 9.17279 14.4398C9.19535 14.5232 9.24326 14.5975 9.3099 14.6525L9.52799 14.8372L9.54753 14.8503C9.83406 15.041 10.2115 15.0402 10.4972 14.8478L10.5151 14.8348L10.7316 14.6533C10.774 14.6182 10.8091 14.5751 10.8348 14.5264C10.8604 14.4777 10.8762 14.4244 10.8811 14.3695C10.8861 14.3147 10.8801 14.2594 10.8636 14.2069C10.847 14.1544 10.8202 14.1057 10.7847 14.0636C10.7492 14.0215 10.7058 13.9868 10.6568 13.9616C10.6079 13.9364 10.5544 13.9212 10.4995 13.9168C10.4446 13.9124 10.3894 13.9189 10.3371 13.9359C10.2847 13.953 10.2363 13.9802 10.1945 14.0161L10.0285 14.1561C10.0236 14.1585 10.0187 14.159 10.0138 14.1569L9.84782 14.0161C9.77382 13.952 9.67961 13.916 9.58171 13.9144ZM10 15.8333C9.17208 15.8333 8.49019 16.372 8.36019 16.8441C8.34394 16.8932 8.33333 16.9457 8.33333 17.0003C8.33333 17.2766 8.55676 17.5 8.83301 17.5C9.16634 17.5 9.33333 17.0833 10 17.0833C10.6667 17.0833 10.8337 17.5 11.167 17.5C11.4432 17.5 11.6667 17.2766 11.6667 17.0003C11.6667 16.9457 11.6561 16.8932 11.6398 16.8441C11.5098 16.372 10.8279 15.8333 10 15.8333Z" fill="black"/>
</svg>
